HIERARCHY
ROOT Hips
{
  OFFSET -85.1953 93.1567 9.11387
  CHANNELS 6 Xposition Yposition Zposition Zrotation Xrotation Yrotation
  JOINT Spine
  {
    OFFSET 0 0 4.66705
    CHANNELS 6 Xposition Yposition Zposition Zrotation Xrotation Yrotation
    JOINT Spine1
    {
      OFFSET 9.33409 0 0
      CHANNELS 6 Xposition Yposition Zposition Zrotation Xrotation Yrotation
      JOINT Spine2
      {
        OFFSET 11.0269 0 0
        CHANNELS 6 Xposition Yposition Zposition Zrotation Xrotation Yrotation
        JOINT Neck
        {
          OFFSET 27.2125 0 -10.2659
          CHANNELS 6 Xposition Yposition Zposition Zrotation Xrotation Yrotation
          JOINT Head
          {
            OFFSET 10.9224 0 0
            CHANNELS 6 Xposition Yposition Zposition Zrotation Xrotation Yrotation
            End Site
            {
              OFFSET 17.6932 0 0
            }
          }
        }
        JOINT RightShoulder
        {
          OFFSET 23.8429 -1.55531 -7.12573
          CHANNELS 6 Xposition Yposition Zposition Zrotation Xrotation Yrotation
          JOINT RightArm
          {
            OFFSET 14.1892 0 0
            CHANNELS 6 Xposition Yposition Zposition Zrotation Xrotation Yrotation
            JOINT RightForeArm
            {
              OFFSET 29.5651 0 0
              CHANNELS 6 Xposition Yposition Zposition Zrotation Xrotation Yrotation
              JOINT RightHand
              {
                OFFSET 25.3936 0 0
                CHANNELS 6 Xposition Yposition Zposition Zrotation Xrotation Yrotation
                JOINT RightFingerBase
                {
                  OFFSET 2.18163 0 0
                  CHANNELS 6 Xposition Yposition Zposition Zrotation Xrotation Yrotation
                  JOINT RightHandMiddle1
                  {
                    OFFSET 6.77462 0.0865053 -1.22157
                    CHANNELS 6 Xposition Yposition Zposition Zrotation Xrotation Yrotation
                    End Site
                    {
                      OFFSET 0 0 0
                    }
                  }
                }
              }
            }
          }
        }
        JOINT LeftShoulder
        {
          OFFSET 23.8431 1.55531 -7.12577
          CHANNELS 6 Xposition Yposition Zposition Zrotation Xrotation Yrotation
          JOINT LeftArm
          {
            OFFSET -14.1892 0.000694916 0
            CHANNELS 6 Xposition Yposition Zposition Zrotation Xrotation Yrotation
            JOINT LeftForeArm
            {
              OFFSET -29.5651 0 0
              CHANNELS 6 Xposition Yposition Zposition Zrotation Xrotation Yrotation
              JOINT LeftHand
              {
                OFFSET -25.3936 0 0
                CHANNELS 6 Xposition Yposition Zposition Zrotation Xrotation Yrotation
                JOINT LeftFingerBase
                {
                  OFFSET -2.18182 -0.000553688 0
                  CHANNELS 6 Xposition Yposition Zposition Zrotation Xrotation Yrotation
                  JOINT LeftHandMiddle1
                  {
                    OFFSET -6.77445 -0.0859989 1.22158
                    CHANNELS 6 Xposition Yposition Zposition Zrotation Xrotation Yrotation
                    End Site
                    {
                      OFFSET 0 0 0
                    }
                  }
                }
              }
            }
          }
        }
      }
    }
  }
  JOINT RightUpLeg
  {
    OFFSET -8.89671 -5.28428 -4.10676
    CHANNELS 6 Xposition Yposition Zposition Zrotation Xrotation Yrotation
    JOINT RightLeg
    {
      OFFSET 43.6759 0 0
      CHANNELS 6 Xposition Yposition Zposition Zrotation Xrotation Yrotation
      JOINT RightFoot
      {
        OFFSET 45.3154 0 0
        CHANNELS 6 Xposition Yposition Zposition Zrotation Xrotation Yrotation
        JOINT RightToeBase
        {
          OFFSET 14.6877 0 0
          CHANNELS 6 Xposition Yposition Zposition Zrotation Xrotation Yrotation
          End Site
          {
            OFFSET 7.03218 0 0
          }
        }
      }
    }
  }
  JOINT LeftUpLeg
  {
    OFFSET 8.89671 -5.28429 -4.10672
    CHANNELS 6 Xposition Yposition Zposition Zrotation Xrotation Yrotation
    JOINT LeftLeg
    {
      OFFSET -43.676 0 0
      CHANNELS 6 Xposition Yposition Zposition Zrotation Xrotation Yrotation
      JOINT LeftFoot
      {
        OFFSET -45.3154 0 0
        CHANNELS 6 Xposition Yposition Zposition Zrotation Xrotation Yrotation
        JOINT LeftToeBase
        {
          OFFSET -14.6877 0 0
          CHANNELS 6 Xposition Yposition Zposition Zrotation Xrotation Yrotation
          End Site
          {
            OFFSET -7.03217 0 0
          }
        }
      }
    }
  }
}
MOTION
Frames:	6
Frame Time:	0.0333333
-85.1692 93.1867 9.12362 90.6434 8.32302 91.8854 1.77636e-015 1.42109e-014 4.66705 -90.5711 0.570586 -89.064 9.33409 -1.77636e-015 0 -1.13282 -1.15118 -5.05884 11.0269 -1.77636e-015 0 -0.986003 -1.27914 -1.10838 27.2125 -8.88178e-015 -10.2659 -2.01396 4.4891 14.4675 10.9224 -5.32907e-015 0 0.854015 4.92312 -8.56555 23.8429 -1.55531 -7.12573 -113.43 -7.91887 -9.75983 14.1892 0 0 -59.7444 -22.8859 -4.45769 29.5651 2.84217e-014 0 25.5201 -9.70159 68.2078 25.3936 -2.84217e-014 2.4869e-014 31.5224 -6.09934 19.1048 2.18163 2.84217e-014 -1.42109e-014 -2.1958e-006 -3.17239e-006 4.4743e-007 6.77462 0.0865053 -1.22157 -21.6739 1.19639 -9.42508 23.8431 1.55531 -7.12577 122.596 8.60432 172.564 -14.1892 0.000694916 1.42109e-014 -50.1156 -25.2839 1.58847 -29.5651 0 -4.27958e-007 28.4592 -2.3252 87.3062 -25.3936 2.7868e-008 -5.56579e-007 32.7688 2.82196 19.7691 -2.18182 -0.000553688 -9.22559e-006 3.59197e-006 9.65062e-007 -6.7379e-007 -6.77445 -0.0859989 1.22158 -21.6739 1.19639 -9.42508 -8.89671 -5.28428 -4.10676 93.1574 -1.60025 98.567 43.6759 -7.10543e-015 -2.84217e-014 3.39043 4.26384 -15.5045 45.3154 -5.32907e-015 0 86.0637 -21.8577 91.5579 14.6877 0 -3.55271e-015 7.13108 3.8859e-006 -1.50445e-005 8.89671 -5.28429 -4.10672 90.3715 0.0103468 -74.8519 -43.676 8.88178e-015 -3.48883e-006 4.02648 3.89425 -27.6936 -45.3154 -3.55271e-015 3.71138e-006 93.9442 -21.7125 91.8281 -14.6877 -1.30235e-006 -3.88953e-006 7.13108 -1.61265e-007 8.06296e-006 
-84.9141 93.2481 9.31991 90.4511 8.89317 91.7229 1.77636e-015 1.42109e-014 4.66705 -90.6068 0.523091 -89.182 9.33409 -3.55271e-015 1.42109e-014 -1.03632 -1.22094 -5.29324 11.0269 -3.55271e-015 1.42109e-014 -0.881827 -1.33677 -1.34241 27.2125 -5.32907e-015 -10.2659 -1.81911 4.33755 15.5013 10.9224 -3.55271e-015 -1.42109e-014 0.566949 4.71519 -8.69757 23.8429 -1.55531 -7.12573 -113.286 -7.93248 -9.73378 14.1892 2.84217e-014 0 -60.5864 -24.2865 -5.77101 29.5651 2.84217e-014 2.84217e-014 25.6988 -7.58743 69.7267 25.3936 -3.90799e-014 3.55271e-014 31.5143 -6.08346 19.0364 2.18163 2.84217e-014 7.10543e-015 -2.1958e-006 -3.17239e-006 4.4743e-007 6.77462 0.0865053 -1.22157 -21.6739 1.19639 -9.42508 23.8431 1.55531 -7.12577 122.559 8.60598 172.567 -14.1892 0.000694916 0 -50.072 -26.3409 1.46786 -29.5651 1.77636e-015 -4.27958e-007 28.9009 -1.71531 87.8254 -25.3936 2.7868e-008 -5.56579e-007 32.5693 2.75546 20.1686 -2.18182 -0.000553688 -9.22559e-006 3.59197e-006 9.65062e-007 -6.7379e-007 -6.77445 -0.0859989 1.22158 -21.6739 1.19639 -9.42508 -8.89671 -5.28428 -4.10676 92.3533 -1.22521 98.0084 43.6759 -8.88178e-015 -1.42109e-014 2.77205 4.30431 -14.2984 45.3154 -5.32907e-015 -1.42109e-014 86.5479 -22.0397 91.5713 14.6877 0 -1.77636e-015 7.13108 3.8859e-006 -1.50445e-005 8.89671 -5.28429 -4.10672 90.4366 0.0391291 -75.3685 -43.676 1.06581e-014 -3.48883e-006 3.46256 3.31235 -26.5162 -45.3154 -1.06581e-014 3.71138e-006 93.2834 -21.3988 91.7895 -14.6877 -1.30235e-006 -3.88953e-006 7.13108 -1.61265e-007 8.06296e-006 
-84.4458 93.1579 9.74702 90.1787 9.74552 91.3568 0 -2.84217e-014 4.66705 -90.628 0.41546 -89.3958 9.33409 -1.77636e-015 -1.42109e-014 -0.824006 -1.26032 -5.71827 11.0269 -3.55271e-015 0 -0.666315 -1.35034 -1.76699 27.2125 -7.10543e-015 -10.2659 -1.49802 4.05811 17.3616 10.9224 0 0 0.0312225 4.3441 -8.92104 23.8429 -1.55531 -7.12573 -113.046 -7.94602 -9.71948 14.1892 0 -2.84217e-014 -62.2121 -27.245 -8.18925 29.5651 3.19744e-014 1.42109e-014 26.6324 -3.44749 72.8716 25.3936 -2.4869e-014 2.84217e-014 31.0273 -5.853 19.0211 2.18163 2.84217e-014 1.42109e-014 -2.1958e-006 -3.17239e-006 4.4743e-007 6.77462 0.0865053 -1.22157 -21.6739 1.19639 -9.42508 23.8431 1.55531 -7.12577 122.544 8.59523 172.541 -14.1892 0.000694916 -1.42109e-014 -49.9697 -28.3197 1.01838 -29.5651 1.77636e-015 -4.27958e-007 29.6423 0.0346801 88.6333 -25.3936 2.7868e-008 -5.56579e-007 32.2539 2.63965 20.9055 -2.18182 -0.000553688 -9.22559e-006 3.59197e-006 9.65062e-007 -6.7379e-007 -6.77445 -0.0859989 1.22158 -21.6739 1.19639 -9.42508 -8.89671 -5.28428 -4.10676 91.1406 -0.644333 97.2579 43.6759 -5.32907e-015 -2.84217e-014 1.81632 4.42935 -12.7892 45.3154 -1.77636e-015 -1.42109e-014 87.625 -21.7204 91.6172 14.6877 7.10543e-015 -3.55271e-015 7.13108 3.8859e-006 -1.50445e-005 8.89671 -5.28429 -4.10672 90.8553 0.00287169 -76.1979 -43.676 7.10543e-015 -3.48883e-006 2.50014 2.45751 -24.9722 -45.3154 -3.55271e-015 3.71138e-006 91.7261 -20.086 91.7084 -14.6877 -1.30235e-006 -3.88953e-006 7.13108 -1.61265e-007 8.06296e-006 
-84.0289 92.8232 10.2235 90.2154 10.1955 91.079 1.77636e-015 0 4.66705 -90.5971 0.330059 -89.551 9.33409 -1.77636e-015 1.42109e-014 -0.655655 -1.19674 -6.02535 11.0269 -3.55271e-015 -1.42109e-014 -0.506817 -1.26698 -2.07401 27.2125 -7.10543e-015 -10.2659 -1.29421 3.84919 18.9714 10.9224 1.77636e-015 -1.42109e-014 -0.371587 4.07742 -9.1712 23.8429 -1.55531 -7.12573 -112.876 -7.92644 -9.79396 14.1892 0 0 -63.5253 -30.6725 -10.0491 29.5651 3.19744e-014 1.42109e-014 28.3635 0.811289 76.0514 25.3936 -3.19744e-014 2.84217e-014 29.8325 -5.37477 19.4368 2.18163 2.84217e-014 1.42109e-014 -2.1958e-006 -3.17239e-006 4.4743e-007 6.77462 0.0865053 -1.22157 -21.6739 1.19639 -9.42508 23.8431 1.55531 -7.12577 122.748 8.54643 172.437 -14.1892 0.000694916 -2.84217e-014 -49.8982 -29.9265 0.0762366 -29.5651 0 -4.27958e-007 30.4105 1.33125 89.5297 -25.3936 2.7868e-008 -5.56579e-007 31.8435 2.56248 20.8711 -2.18182 -0.000553688 -9.22559e-006 3.59197e-006 9.65062e-007 -6.7379e-007 -6.77445 -0.0859989 1.22158 -21.6739 1.19639 -9.42508 -8.89671 -5.28428 -4.10676 90.5367 -0.408539 96.5408 43.6759 -8.88178e-015 -1.42109e-014 1.20626 4.67524 -11.8603 45.3154 -8.88178e-015 -1.42109e-014 88.8545 -20.8106 91.6651 14.6877 -7.10543e-015 -1.77636e-015 7.13108 3.8859e-006 -1.50445e-005 8.89671 -5.28429 -4.10672 91.7653 -0.344621 -76.9368 -43.676 8.88178e-015 -3.48883e-006 1.92034 2.29178 -24.8462 -45.3154 -7.10543e-015 3.71138e-006 90.1004 -17.6759 91.6621 -14.6877 -1.30235e-006 -3.88953e-006 7.13108 -1.61265e-007 8.06296e-006 
-83.7977 92.4454 10.5932 90.561 10.1289 91.065 1.77636e-015 2.84217e-014 4.66705 -90.5571 0.330167 -89.6035 9.33409 -1.77636e-015 0 -0.657476 -1.11624 -6.13005 11.0269 -3.55271e-015 -1.42109e-014 -0.518319 -1.18729 -2.17893 27.2125 -7.10543e-015 -10.2659 -1.3124 3.81892 19.9393 10.9224 -3.55271e-015 -1.42109e-014 -0.379622 4.05309 -9.44314 23.8429 -1.55531 -7.12573 -112.812 -7.87539 -9.94986 14.1892 2.84217e-014 -1.42109e-014 -63.6937 -33.8769 -10.3003 29.5651 2.13163e-014 0 30.2168 4.13962 78.5021 25.3936 -2.84217e-014 3.55271e-014 28.3747 -4.86327 20.2372 2.18163 2.84217e-014 -1.42109e-014 -2.1958e-006 -3.17239e-006 4.4743e-007 6.77462 0.0865053 -1.22157 -21.6739 1.19639 -9.42508 23.8431 1.55531 -7.12577 123.263 8.45876 172.259 -14.1892 0.000694916 -1.42109e-014 -50.0562 -30.0874 -1.39307 -29.5651 -3.55271e-015 -4.27958e-007 31.4217 2.14502 90.5987 -25.3936 2.7868e-008 -5.56579e-007 31.198 2.56923 19.351 -2.18182 -0.000553688 -9.22559e-006 3.59197e-006 9.65062e-007 -6.7379e-007 -6.77445 -0.0859989 1.22158 -21.6739 1.19639 -9.42508 -8.89671 -5.28428 -4.10676 90.6549 -0.651341 95.6601 43.6759 -1.06581e-014 -1.42109e-014 0.993695 4.95511 -10.9614 45.3154 -5.32907e-015 -2.84217e-014 89.8921 -20.08 91.6898 14.6877 -7.10543e-015 -3.55271e-015 7.13108 3.8859e-006 -1.50445e-005 8.89671 -5.28429 -4.10672 92.9328 -1.07322 -77.5894 -43.676 7.10543e-015 -3.48883e-006 2.18433 3.1935 -26.4895 -45.3154 -3.55271e-015 3.71138e-006 89.1643 -14.849 91.6595 -14.6877 -1.30235e-006 -3.88953e-006 7.13108 -1.61265e-007 8.06296e-006 
-83.7992 92.2949 10.7454 90.7764 9.7701 91.2343 0 0 4.66705 -90.5731 0.407685 -89.6222 9.33409 -1.77636e-015 0 -0.812588 -1.14872 -6.17211 11.0269 -1.77636e-015 0 -0.668401 -1.23816 -2.2211 27.2125 -7.10543e-015 -10.2659 -1.59842 3.96544 20.3267 10.9224 -3.55271e-015 0 0.0900413 4.28353 -9.60439 23.8429 -1.55531 -7.12573 -112.803 -7.82906 -10.0857 14.1892 5.68434e-014 0 -62.6804 -36.1889 -8.88778 29.5651 2.13163e-014 1.42109e-014 31.4705 6.25645 79.9988 25.3936 -2.84217e-014 2.84217e-014 27.4882 -4.58036 20.8116 2.18163 1.42109e-014 -1.42109e-014 -2.1958e-006 -3.17239e-006 4.4743e-007 6.77462 0.0865053 -1.22157 -21.6739 1.19639 -9.42508 23.8431 1.55531 -7.12577 123.884 8.37555 172.099 -14.1892 0.000694916 -1.42109e-014 -50.6207 -28.1958 -3.138 -29.5651 -1.77636e-015 -4.27958e-007 32.8347 1.16199 89.4113 -25.3936 2.7868e-008 -5.56579e-007 30.1742 2.64185 16.661 -2.18182 -0.000553688 -9.22559e-006 3.59197e-006 9.65062e-007 -6.7379e-007 -6.77445 -0.0859989 1.22158 -21.6739 1.19639 -9.42508 -8.89671 -5.28428 -4.10676 90.9346 -0.961567 94.8675 43.6759 -1.06581e-014 -1.42109e-014 0.846561 4.96633 -9.70842 45.3154 -3.55271e-015 0 90.4973 -20.27 91.7042 14.6877 0 -1.77636e-015 7.13108 3.8859e-006 -1.50445e-005 8.89671 -5.28429 -4.10672 93.8455 -1.88153 -78.1793 -43.676 7.10543e-015 -3.48883e-006 3.23527 4.58448 -29.167 -45.3154 -3.55271e-015 3.71138e-006 89.0907 -12.8122 91.6474 -14.6877 -1.30235e-006 -3.88953e-006 7.13108 -1.61265e-007 8.06296e-006 
